<?xml version="1.0" encoding="UTF-8" standalone="no"?>
<!-- Generated by IcoMoon.io -->

<svg
   xmlns:dc="http://purl.org/dc/elements/1.1/"
   xmlns:cc="http://creativecommons.org/ns#"
   xmlns:rdf="http://www.w3.org/1999/02/22-rdf-syntax-ns#"
   xmlns:svg="http://www.w3.org/2000/svg"
   xmlns="http://www.w3.org/2000/svg"
   xmlns:sodipodi="http://sodipodi.sourceforge.net/DTD/sodipodi-0.dtd"
   xmlns:inkscape="http://www.inkscape.org/namespaces/inkscape"
   version="1.1"
   width="512"
   height="448"
   viewBox="0 0 512 448"
   id="svg2"
   inkscape:version="0.48.4 r9939"
   sodipodi:docname="automobile.svg">
  <metadata
     id="metadata11">
    <rdf:RDF>
      <cc:Work
         rdf:about="">
        <dc:format>image/svg+xml</dc:format>
        <dc:type
           rdf:resource="http://purl.org/dc/dcmitype/StillImage" />
      </cc:Work>
    </rdf:RDF>
  </metadata>
  <defs
     id="defs9" />
  <sodipodi:namedview
     pagecolor="#ffffff"
     bordercolor="#666666"
     borderopacity="1"
     objecttolerance="10"
     gridtolerance="10"
     guidetolerance="10"
     inkscape:pageopacity="0"
     inkscape:pageshadow="2"
     inkscape:window-width="640"
     inkscape:window-height="480"
     id="namedview7"
     showgrid="false"
     inkscape:zoom="0.52678571"
     inkscape:cx="256"
     inkscape:cy="224"
     inkscape:window-x="69"
     inkscape:window-y="34"
     inkscape:window-maximized="0"
     inkscape:current-layer="svg2" />
  <g
     id="icomoon-ignore" />
  <path
     fill="#000"
     d="M120 272q0-16.5-11.75-28.25t-28.25-11.75-28.25 11.75-11.75 28.25 11.75 28.25 28.25 11.75 28.25-11.75 11.75-28.25zM129 192h254l-22.25-89.25q-0.5-2-3.5-4.375t-5.25-2.375h-192q-2.25 0-5.25 2.375t-3.5 4.375zM472 272q0-16.5-11.75-28.25t-28.25-11.75-28.25 11.75-11.75 28.25 11.75 28.25 28.25 11.75 28.25-11.75 11.75-28.25zM512 248v96q0 3.5-2.25 5.75t-5.75 2.25h-24v32q0 20-14 34t-34 14-34-14-14-34v-32h-256v32q0 20-14 34t-34 14-34-14-14-34v-32h-24q-3.5 0-5.75-2.25t-2.25-5.75v-96q0-23.25 16.375-39.625t39.625-16.375h7l26.25-104.75q5.75-23.5 26-39.375t44.75-15.875h192q24.5 0 44.75 15.875t26 39.375l26.25 104.75h7q23.25 0 39.625 16.375t16.375 39.625z"
     id="path5"
     style="fill:#ffffff" />
</svg>
