<?xml version="1.0" encoding="utf-8"?>
<!-- Generated by IcoMoon.io -->
<!DOCTYPE svg PUBLIC "-//W3C//DTD SVG 1.1//EN" "http://www.w3.org/Graphics/SVG/1.1/DTD/svg11.dtd">
<svg version="1.1" xmlns="http://www.w3.org/2000/svg" xmlns:xlink="http://www.w3.org/1999/xlink" width="512" height="512" viewBox="0 0 512 512">
<g id="icomoon-ignore">
</g>
<path d="M160 192h64v64h-64zM256 192h64v64h-64zM352 192h64v64h-64zM64 384h64v64h-64zM160 384h64v64h-64zM256 384h64v64h-64zM160 288h64v64h-64zM256 288h64v64h-64zM352 288h64v64h-64zM64 288h64v64h-64zM416 0v32h-64v-32h-224v32h-64v-32h-64v512h480v-512h-64zM448 480h-416v-352h416v352z"></path>
</svg>
